{
  "accessors": [
    {
      "bufferView": 2,
      "componentType": 5126,
      "count": 1327,
      "max": [
        3.4429314136505127,
        9.345475196838379,
        5.620999336242676
      ],
      "min": [
        -3.4429314136505127,
        -10.551094055175781,
        -1.4428564310073853
      ],
      "type": "VEC3"
    },
    {
      "bufferView": 2,
      "byteOffset": 15924,
      "componentType": 5126,
      "count": 1327,
      "max": [
        1.0,
        1.0,
        1.0
      ],
      "min": [
        -1.0,
        -1.0,
        -1.0
      ],
      "type": "VEC3"
    },
    {
      "bufferView": 1,
      "componentType": 5126,
      "count": 1327,
      "max": [
        0.9499659538269043,
        0.9762901067733765
      ],
      "min": [
        7.0505130622677825e-09,
        -2.6412504183781493e-08
      ],
      "type": "VEC2"
    },
    {
      "bufferView": 0,
      "componentType": 5125,
      "count": 2058,
      "type": "SCALAR"
    },
    {
      "bufferView": 2,
      "byteOffset": 31848,
      "componentType": 5126,
      "count": 224,
      "max": [
        0.4741992950439453,
        -2.4926528930664063,
        1.7580533027648926
      ],
      "min": [
        -0.4741992950439453,
        -7.397085189819336,
        -1.2408632040023804
      ],
      "type": "VEC3"
    },
    {
      "bufferView": 2,
      "byteOffset": 34536,
      "componentType": 5126,
      "count": 224,
      "max": [
        0.9988652467727661,
        0.11244905740022659,
        0.9999973773956299
      ],
      "min": [
        -0.9988651275634766,
        -0.9999992847442627,
        -0.9948538541793823
      ],
      "type": "VEC3"
    },
    {
      "bufferView": 1,
      "byteOffset": 10616,
      "componentType": 5126,
      "count": 224,
      "max": [
        0.954731822013855,
        0.9551544785499573
      ],
      "min": [
        0.1836777627468109,
        0.34534212946891785
      ],
      "type": "VEC2"
    },
    {
      "bufferView": 0,
      "byteOffset": 8232,
      "componentType": 5125,
      "count": 336,
      "type": "SCALAR"
    },
    {
      "bufferView": 2,
      "byteOffset": 37224,
      "componentType": 5126,
      "count": 100,
      "max": [
        0.21736551821231842,
        9.34359073638916,
        1.0802748203277588
      ],
      "min": [
        -0.21752426028251648,
        6.8122453689575195,
        0.25717562437057495
      ],
      "type": "VEC3"
    },
    {
      "bufferView": 2,
      "byteOffset": 38424,
      "componentType": 5126,
      "count": 100,
      "max": [
        0.9997631311416626,
        0.9996041655540466,
        0.9578345417976379
      ],
      "min": [
        -0.9997644424438477,
        0.02105746790766716,
        -0.9519355297088623
      ],
      "type": "VEC3"
    },
    {
      "bufferView": 1,
      "byteOffset": 12408,
      "componentType": 5126,
      "count": 100,
      "max": [
        0.9469817876815796,
        0.8893011808395386
      ],
      "min": [
        0.8253303170204163,
        0.2919798195362091
      ],
      "type": "VEC2"
    },
    {
      "bufferView": 0,
      "byteOffset": 9576,
      "componentType": 5125,
      "count": 156,
      "type": "SCALAR"
    },
    {
      "bufferView": 2,
      "byteOffset": 39624,
      "componentType": 5126,
      "count": 422,
      "max": [
        3.5552561283111572,
        4.601629257202148,
        0.2168872058391571
      ],
      "min": [
        -3.5552561283111572,
        0.8770256042480469,
        -0.17373335361480713
      ],
      "type": "VEC3"
    },
    {
      "bufferView": 2,
      "byteOffset": 44688,
      "componentType": 5126,
      "count": 422,
      "max": [
        1.0,
        0.8110445737838745,
        0.9112728238105774
      ],
      "min": [
        -1.0,
        -0.8110440969467163,
        -0.9112727046012878
      ],
      "type": "VEC3"
    },
    {
      "bufferView": 1,
      "byteOffset": 13208,
      "componentType": 5126,
      "count": 422,
      "max": [
        0.9468305110931396,
        0.867841362953186
      ],
      "min": [
        0.831040620803833,
        4.8344233505304146e-08
      ],
      "type": "VEC2"
    },
    {
      "bufferView": 0,
      "byteOffset": 10200,
      "componentType": 5125,
      "count": 660,
      "type": "SCALAR"
    }
  ],
  "asset": {
    "extras": {
      "author": "tzakh13 (https://sketchfab.com/tzakh13)",
      "license": "CC-BY-4.0 (http://creativecommons.org/licenses/by/4.0/)",
      "source": "https://sketchfab.com/3d-models/low-poly-f-16-9e09afcd601a45bf9fcd795b22f0fb7b",
      "title": "Low-Poly F-16"
    },
    "generator": "Sketchfab-16.99.0",
    "version": "2.0"
  },
  "bufferViews": [
    {
      "buffer": 0,
      "byteLength": 12840,
      "name": "floatBufferViews",
      "target": 34963
    },
    {
      "buffer": 0,
      "byteLength": 16584,
      "byteOffset": 12840,
      "byteStride": 8,
      "name": "floatBufferViews",
      "target": 34962
    },
    {
      "buffer": 0,
      "byteLength": 49752,
      "byteOffset": 29424,
      "byteStride": 12,
      "name": "floatBufferViews",
      "target": 34962
    }
  ],
  "buffers": [
    {
      "byteLength": 79176,
      "uri": "scene.bin"
    }
  ],
  "materials": [
    {
      "doubleSided": true,
      "name": "Material",
      "pbrMetallicRoughness": {
        "baseColorFactor": [
          0.185905,
          0.185905,
          0.185905,
          1.0
        ],
        "metallicFactor": 0.0,
        "roughnessFactor": 0.9709496448510052
      }
    },
    {
      "doubleSided": true,
      "name": "Material.001",
      "pbrMetallicRoughness": {
        "baseColorFactor": [
          0.0,
          0.0,
          0.0,
          1.0
        ],
        "metallicFactor": 0.0
      }
    },
    {
      "doubleSided": true,
      "emissiveFactor": [
        0.930106,
        0.323144,
        0.0497067
      ],
      "name": "Material.002",
      "pbrMetallicRoughness": {
        "baseColorFactor": [
          0.930106,
          0.323144,
          0.0497067,
          1.0
        ],
        "metallicFactor": 0.0,
        "roughnessFactor": 0.9033030407636521
      }
    },
    {
      "doubleSided": true,
      "name": "Material.003",
      "pbrMetallicRoughness": {
        "baseColorFactor": [
          0.735833,
          0.735833,
          0.735833,
          1.0
        ],
        "metallicFactor": 0.0,
        "roughnessFactor": 0.8354627391912397
      }
    }
  ],
  "meshes": [
    {
      "name": "Cube_Material_0",
      "primitives": [
        {
          "attributes": {
            "NORMAL": 1,
            "POSITION": 0,
            "TEXCOORD_0": 2
          },
          "indices": 3,
          "material": 0,
          "mode": 4
        }
      ]
    },
    {
      "name": "Cube_Material.001_0",
      "primitives": [
        {
          "attributes": {
            "NORMAL": 5,
            "POSITION": 4,
            "TEXCOORD_0": 6
          },
          "indices": 7,
          "material": 1,
          "mode": 4
        }
      ]
    },
    {
      "name": "Cube_Material.002_0",
      "primitives": [
        {
          "attributes": {
            "NORMAL": 9,
            "POSITION": 8,
            "TEXCOORD_0": 10
          },
          "indices": 11,
          "material": 2,
          "mode": 4
        }
      ]
    },
    {
      "name": "Cube_Material.003_0",
      "primitives": [
        {
          "attributes": {
            "NORMAL": 13,
            "POSITION": 12,
            "TEXCOORD_0": 14
          },
          "indices": 15,
          "material": 3,
          "mode": 4
        }
      ]
    }
  ],
  "nodes": [
    {
      "children": [
        1
      ],
      "matrix": [
        1.0,
        0.0,
        0.0,
        0.0,
        0.0,
        2.220446049250313e-16,
        -1.0,
        0.0,
        0.0,
        1.0,
        2.220446049250313e-16,
        0.0,
        0.0,
        0.0,
        0.0,
        1.0
      ],
      "name": "Sketchfab_model"
    },
    {
      "children": [
        2
      ],
      "matrix": [
        0.009999999776482582,
        0.0,
        0.0,
        0.0,
        0.0,
        0.0,
        0.009999999776482582,
        0.0,
        0.0,
        -0.009999999776482582,
        0.0,
        0.0,
        0.0,
        0.0,
        0.0,
        1.0
      ],
      "name": "6593d49118ed4ea9a1626a2521e31eb4.fbx"
    },
    {
      "children": [
        3
      ],
      "name": "RootNode"
    },
    {
      "children": [
        4,
        5,
        6,
        7
      ],
      "matrix": [
        23.586423873901367,
        0.0,
        0.0,
        0.0,
        0.0,
        -2.1646000786432183e-06,
        -13.286220550536934,
        0.0,
        0.0,
        12.410842895507649,
        -2.021982956361417e-06,
        0.0,
        0.0,
        10.3257474899292,
        0.0,
        1.0
      ],
      "name": "Cube"
    },
    {
      "mesh": 0,
      "name": "Cube_Material_0"
    },
    {
      "mesh": 1,
      "name": "Cube_Material.001_0"
    },
    {
      "mesh": 2,
      "name": "Cube_Material.002_0"
    },
    {
      "mesh": 3,
      "name": "Cube_Material.003_0"
    }
  ],
  "scene": 0,
  "scenes": [
    {
      "name": "Sketchfab_Scene",
      "nodes": [
        0
      ]
    }
  ]
}
